<?xml version="1.0" standalone="no"?>
<!DOCTYPE svg PUBLIC "-//W3C//DTD SVG 20010904//EN"
 "http://www.w3.org/TR/2001/REC-SVG-20010904/DTD/svg10.dtd">
<svg version="1.0" xmlns="http://www.w3.org/2000/svg"
 width="300.000000pt" height="300.000000pt" viewBox="0 0 300.000000 300.000000"
 preserveAspectRatio="xMidYMid meet">
<metadata>
Created by potrace 1.11, written by Peter Selinger 2001-2013
</metadata>
<g transform="translate(0.000000,300.000000) scale(0.100000,-0.100000)"
fill="#000000" stroke="none">
<path d="M1417 2344 c-1 -1 -39 -5 -84 -8 -45 -4 -92 -9 -105 -12 -13 -2 -36
-7 -53 -9 -16 -3 -57 -12 -90 -20 -33 -9 -70 -18 -83 -20 -32 -8 -128 -43
-192 -72 -30 -14 -65 -29 -77 -34 -24 -9 -225 -128 -233 -138 -3 -3 -37 -30
-77 -60 -174 -130 -428 -437 -418 -504 12 -74 235 -340 390 -465 39 -31 72
-60 75 -63 11 -12 245 -159 254 -159 3 0 37 -15 78 -34 66 -30 213 -82 263
-92 11 -2 31 -6 45 -9 145 -32 208 -38 395 -38 147 -1 223 4 285 16 47 9 95
19 107 21 59 12 182 51 259 82 93 37 207 95 212 107 2 4 8 7 13 7 10 0 87 48
107 67 7 7 17 13 21 13 4 0 16 8 27 18 10 9 42 35 69 57 86 69 275 265 275
286 0 5 4 9 8 9 17 0 107 155 105 182 -2 33 -70 140 -149 234 -241 288 -554
492 -885 578 -117 30 -144 35 -286 51 -55 6 -251 13 -256 9z m242 -167 c256
-64 451 -243 531 -485 16 -47 16 -57 4 -80 -17 -33 -9 -81 17 -105 18 -17 38
-22 86 -18 27 1 64 59 58 91 -6 31 -33 70 -48 70 -10 0 -28 43 -41 100 -1 3
-13 31 -28 62 -38 81 -100 169 -166 234 -67 67 -58 66 96 -6 87 -42 184 -100
292 -177 125 -89 383 -379 362 -407 -157 -206 -288 -333 -465 -449 -72 -48
-206 -118 -272 -142 -27 -10 -55 -22 -61 -27 -14 -10 -24 0 -24 24 0 10 -11
23 -23 29 -20 9 -32 5 -78 -24 -130 -83 -224 -110 -389 -112 -69 -1 -129 1
-135 4 -5 3 -16 6 -25 7 -84 9 -217 70 -297 136 -120 100 -197 210 -242 346
-20 62 -20 65 -2 100 29 58 6 115 -50 127 -92 21 -142 -83 -74 -151 14 -14 25
-30 25 -37 0 -23 44 -152 57 -165 7 -7 13 -19 13 -26 0 -19 91 -144 145 -200
38 -39 43 -47 24 -42 -58 16 -272 132 -358 194 -136 97 -303 264 -398 398
l-22 31 56 74 c67 90 225 246 313 312 36 26 73 55 83 63 9 8 19 14 22 14 3 0
28 15 57 33 116 73 335 162 314 128 -10 -15 4 -39 27 -45 13 -3 38 5 68 24
135 83 243 111 404 106 66 -2 131 -6 144 -9z"/>
<path d="M1410 2123 c-278 -38 -511 -264 -558 -545 -50 -292 107 -585 379
-706 86 -39 155 -54 258 -57 290 -7 542 172 638 454 46 135 38 335 -20 461
-110 240 -333 390 -587 395 -47 1 -96 0 -110 -2z m250 -107 c87 -27 168 -73
233 -134 76 -73 139 -180 163 -279 12 -46 14 -232 3 -238 -5 -4 -7 -10 -4 -15
3 -5 -4 -34 -16 -64 -71 -191 -229 -331 -416 -370 -76 -16 -211 -14 -269 3
-90 28 -189 86 -254 151 -63 63 -127 167 -145 235 -5 17 -10 37 -12 45 -13 49
-14 156 -2 217 7 37 13 71 14 74 1 13 51 114 58 117 4 2 7 8 7 13 0 25 115
140 181 182 52 33 149 70 209 80 53 9 198 -1 250 -17z"/>
<path d="M1452 1854 c-100 -26 -169 -122 -159 -221 6 -58 45 -136 73 -147 19
-7 18 -15 -26 -266 -27 -154 -32 -150 165 -150 145 0 155 1 169 21 8 12 13 31
10 43 -3 22 -33 203 -39 246 -14 93 -15 91 15 120 45 44 62 95 57 166 -8 111
-73 175 -202 200 -5 1 -34 -5 -63 -12z"/>
<path d="M891 2005 c-84 -91 -146 -209 -179 -339 -22 -83 -15 -118 25 -124 26
-4 49 28 56 78 12 84 76 219 146 307 52 65 57 79 39 97 -30 29 -46 25 -87 -19z"/>
<path d="M2243 1413 c-12 -11 -25 -43 -32 -82 -22 -112 -82 -240 -148 -315
-33 -38 -41 -59 -32 -83 36 -96 197 113 257 332 24 91 23 133 -4 151 -19 13
-24 12 -41 -3z"/>
</g>
</svg>
