<?xml version="1.0" standalone="no"?>
<!DOCTYPE svg PUBLIC "-//W3C//DTD SVG 20010904//EN"
 "http://www.w3.org/TR/2001/REC-SVG-20010904/DTD/svg10.dtd">
<svg version="1.0" xmlns="http://www.w3.org/2000/svg"
 width="700.000000pt" height="700.000000pt" viewBox="0 0 700.000000 700.000000"
 preserveAspectRatio="xMidYMid meet">
<metadata>
Created by potrace 1.11, written by Peter Selinger 2001-2013
</metadata>
<g transform="translate(0.000000,700.000000) scale(0.100000,-0.100000)"
fill="#000000" stroke="none">
<path d="M1335 6981 c-135 -24 -231 -52 -350 -100 -451 -185 -806 -587 -930
-1056 -58 -215 -55 -104 -55 -2325 0 -2204 -2 -2106 51 -2313 139 -544 592
-997 1136 -1136 207 -53 109 -51 2313 -51 2204 0 2106 -2 2313 51 544 139 997
592 1136 1136 53 207 51 109 51 2313 0 2221 3 2110 -55 2325 -142 537 -583
978 -1120 1120 -215 58 -103 55 -2335 54 -1922 -1 -2061 -2 -2155 -18z m2382
-2166 c183 -11 456 -67 633 -130 494 -176 927 -503 1255 -946 46 -62 98 -141
115 -175 30 -59 31 -62 16 -98 -33 -79 -173 -271 -309 -424 -370 -416 -876
-709 -1407 -816 -303 -61 -682 -65 -990 -10 -692 124 -1325 554 -1726 1174
-67 105 -66 121 29 262 108 161 193 265 337 408 466 466 1034 724 1675 760
127 7 187 6 372 -5z"/>
<path d="M3315 4614 c-11 -3 -55 -14 -97 -24 -95 -23 -212 -74 -309 -134 -81
-51 -98 -55 -122 -28 -21 23 -21 41 -2 70 15 21 13 21 -72 -9 -110 -38 -363
-161 -463 -225 -259 -166 -519 -409 -703 -659 -37 -49 -67 -97 -67 -105 0 -21
117 -177 226 -302 192 -219 451 -423 714 -561 112 -59 334 -151 350 -145 6 2
-14 22 -44 45 -58 46 -161 158 -218 238 -82 116 -163 298 -189 422 -10 47 -18
65 -37 74 -31 17 -52 59 -52 104 0 120 163 157 215 49 21 -46 19 -76 -11 -120
l-26 -38 21 -80 c26 -96 94 -242 155 -334 133 -200 345 -359 586 -438 80 -26
97 -28 298 -32 179 -3 225 -1 285 14 133 32 253 84 357 154 72 48 84 51 109
34 24 -17 28 -62 9 -83 -17 -17 8 -10 127 36 213 84 478 241 654 387 168 141
460 466 504 563 8 19 1 34 -49 104 -249 346 -609 646 -984 819 -110 51 -280
114 -287 106 -2 -2 22 -22 52 -46 182 -140 338 -369 410 -601 23 -76 31 -90
63 -110 69 -45 75 -140 11 -193 -64 -54 -156 -20 -179 65 -10 34 -8 47 9 82
19 40 20 45 5 101 -60 230 -242 486 -442 619 -91 61 -235 129 -332 158 -63 18
-104 22 -265 25 -104 1 -199 0 -210 -2z m430 -154 c491 -134 802 -621 720
-1125 -52 -321 -252 -593 -540 -735 -153 -76 -238 -94 -425 -95 -131 0 -168 4
-240 23 -351 96 -615 363 -711 722 -20 72 -23 110 -23 245 -1 144 2 170 27
259 76 274 255 499 496 624 96 50 196 86 288 102 87 16 319 5 408 -20z m-1061
-116 c26 -25 19 -47 -40 -120 -112 -139 -189 -295 -225 -454 -28 -127 -37
-145 -74 -145 -49 0 -58 33 -35 135 35 161 93 296 186 435 98 148 149 188 188
149z m2011 -958 c15 -22 14 -32 -4 -122 -36 -176 -90 -312 -176 -445 -100
-155 -149 -194 -189 -153 -24 23 -20 47 15 90 70 86 151 224 188 319 36 91 71
227 71 272 0 56 66 83 95 39z"/>
<path d="M3346 4375 c-183 -38 -315 -106 -445 -229 -132 -126 -205 -252 -257
-446 -26 -94 -26 -309 0 -410 45 -177 115 -299 246 -431 432 -434 1145 -299
1406 266 105 227 105 513 0 740 -115 250 -326 429 -582 496 -104 27 -275 33
-368 14z m289 -319 c107 -50 175 -154 178 -274 2 -89 -24 -158 -87 -228 l-49
-56 42 -264 c23 -145 41 -276 39 -291 -5 -47 -33 -53 -250 -53 -108 0 -208 4
-222 10 -14 5 -28 20 -32 34 -3 13 13 140 35 280 23 141 41 265 41 276 0 12
-16 34 -35 51 -19 17 -49 59 -66 94 -88 180 12 396 208 445 54 13 140 3 198
-24z"/>
</g>
</svg>
