<svg width="18" height="18" viewBox="0 0 18 18" fill="686BC2" xmlns="http://www.w3.org/2000/svg">
<path d="M1.70711 0.292895C1.31658 -0.0976293 0.683419 -0.0976293 0.292894 0.292895C-0.09763 0.683419 -0.09763 1.31658 0.292894 1.70711L1.70711 0.292895ZM16.2929 17.7071C16.6834 18.0976 17.3166 18.0976 17.7071 17.7071C18.0976 17.3166 18.0976 16.6834 17.7071 16.2929L16.2929 17.7071ZM0.292893 16.2929C-0.0976311 16.6834 -0.0976311 17.3166 0.292893 17.7071C0.683418 18.0976 1.31658 18.0976 1.70711 17.7071L0.292893 16.2929ZM17.7071 1.70711C18.0976 1.31658 18.0976 0.683417 17.7071 0.292893C17.3166 -0.0976311 16.6834 -0.0976311 16.2929 0.292893L17.7071 1.70711ZM0.292894 1.70711L16.2929 17.7071L17.7071 16.2929L1.70711 0.292895L0.292894 1.70711ZM1.70711 17.7071L17.7071 1.70711L16.2929 0.292893L0.292893 16.2929L1.70711 17.7071Z"/>
</svg>