<svg width="18" height="14" viewBox="0 0 18 14" fill="#999" xmlns="http://www.w3.org/2000/svg">
<path fill-rule="evenodd" clip-rule="evenodd" d="M0.599998 1C0.599998 0.668631 0.868628 0.400002 1.2 0.400002H16.8C17.1314 0.400002 17.4 0.668631 17.4 1C17.4 1.33137 17.1314 1.6 16.8 1.6H1.2C0.868628 1.6 0.599998 1.33137 0.599998 1ZM0.599998 7C0.599998 6.66863 0.868628 6.4 1.2 6.4H16.8C17.1314 6.4 17.4 6.66863 17.4 7C17.4 7.33137 17.1314 7.6 16.8 7.6H1.2C0.868628 7.6 0.599998 7.33137 0.599998 7ZM0.599998 13C0.599998 12.6686 0.868628 12.4 1.2 12.4H12C12.3314 12.4 12.6 12.6686 12.6 13C12.6 13.3314 12.3314 13.6 12 13.6H1.2C0.868628 13.6 0.599998 13.3314 0.599998 13Z"/>
</svg>